<svg xmlns="http://www.w3.org/2000/svg" xmlns:xlink="http://www.w3.org/1999/xlink" width="500" zoomAndPan="magnify" viewBox="0 0 375 374.999991" height="500" preserveAspectRatio="xMidYMid meet" version="1.0"><defs><g/><clipPath id="36bc997fce"><path d="M 112.53125 84.339844 L 243.03125 84.339844 L 243.03125 234.339844 L 112.53125 234.339844 Z M 112.53125 84.339844 " clip-rule="nonzero"/></clipPath><clipPath id="1d03768b1d"><path d="M 196 97 L 235 97 L 235 147 L 196 147 Z M 196 97 " clip-rule="nonzero"/></clipPath><clipPath id="554c1367f4"><path d="M 241.511719 152.878906 L 181.910156 102.558594 L 202.714844 77.917969 L 262.316406 128.238281 Z M 241.511719 152.878906 " clip-rule="nonzero"/></clipPath><clipPath id="f008865cda"><path d="M 241.511719 152.878906 L 181.910156 102.558594 L 202.714844 77.917969 L 262.316406 128.238281 Z M 241.511719 152.878906 " clip-rule="nonzero"/></clipPath><clipPath id="4757e40076"><path d="M 186 89 L 202 89 L 202 106 L 186 106 Z M 186 89 " clip-rule="nonzero"/></clipPath><clipPath id="bf9683c264"><path d="M 241.511719 152.878906 L 181.910156 102.558594 L 202.714844 77.917969 L 262.316406 128.238281 Z M 241.511719 152.878906 " clip-rule="nonzero"/></clipPath><clipPath id="ad7694ed7f"><path d="M 241.511719 152.878906 L 181.910156 102.558594 L 202.714844 77.917969 L 262.316406 128.238281 Z M 241.511719 152.878906 " clip-rule="nonzero"/></clipPath><clipPath id="b74d057691"><path d="M 215 94 L 256 94 L 256 136 L 215 136 Z M 215 94 " clip-rule="nonzero"/></clipPath><clipPath id="5556e3e669"><path d="M 241.511719 152.878906 L 181.910156 102.558594 L 202.714844 77.917969 L 262.316406 128.238281 Z M 241.511719 152.878906 " clip-rule="nonzero"/></clipPath><clipPath id="c009f1c436"><path d="M 241.511719 152.878906 L 181.910156 102.558594 L 202.714844 77.917969 L 262.316406 128.238281 Z M 241.511719 152.878906 " clip-rule="nonzero"/></clipPath><clipPath id="d6ed9c01bf"><path d="M 206 87 L 221 87 L 221 103 L 206 103 Z M 206 87 " clip-rule="nonzero"/></clipPath><clipPath id="de90901c8b"><path d="M 241.511719 152.878906 L 181.910156 102.558594 L 202.714844 77.917969 L 262.316406 128.238281 Z M 241.511719 152.878906 " clip-rule="nonzero"/></clipPath><clipPath id="9787c92945"><path d="M 241.511719 152.878906 L 181.910156 102.558594 L 202.714844 77.917969 L 262.316406 128.238281 Z M 241.511719 152.878906 " clip-rule="nonzero"/></clipPath><clipPath id="827b93c598"><path d="M 201 88 L 205 88 L 205 92 L 201 92 Z M 201 88 " clip-rule="nonzero"/></clipPath><clipPath id="a943db09b4"><path d="M 241.511719 152.878906 L 181.910156 102.558594 L 202.714844 77.917969 L 262.316406 128.238281 Z M 241.511719 152.878906 " clip-rule="nonzero"/></clipPath><clipPath id="cde01641af"><path d="M 241.511719 152.878906 L 181.910156 102.558594 L 202.714844 77.917969 L 262.316406 128.238281 Z M 241.511719 152.878906 " clip-rule="nonzero"/></clipPath><clipPath id="c1813b47a9"><path d="M 220 102 L 224 102 L 224 106 L 220 106 Z M 220 102 " clip-rule="nonzero"/></clipPath><clipPath id="9b0ff03204"><path d="M 241.511719 152.878906 L 181.910156 102.558594 L 202.714844 77.917969 L 262.316406 128.238281 Z M 241.511719 152.878906 " clip-rule="nonzero"/></clipPath><clipPath id="426acbfb33"><path d="M 241.511719 152.878906 L 181.910156 102.558594 L 202.714844 77.917969 L 262.316406 128.238281 Z M 241.511719 152.878906 " clip-rule="nonzero"/></clipPath><clipPath id="6558c53719"><path d="M 193 107 L 197 107 L 197 111 L 193 111 Z M 193 107 " clip-rule="nonzero"/></clipPath><clipPath id="c04b86d924"><path d="M 241.511719 152.878906 L 181.910156 102.558594 L 202.714844 77.917969 L 262.316406 128.238281 Z M 241.511719 152.878906 " clip-rule="nonzero"/></clipPath><clipPath id="7979631c66"><path d="M 241.511719 152.878906 L 181.910156 102.558594 L 202.714844 77.917969 L 262.316406 128.238281 Z M 241.511719 152.878906 " clip-rule="nonzero"/></clipPath><clipPath id="23cc31adc2"><path d="M 201 81 L 204 81 L 204 84 L 201 84 Z M 201 81 " clip-rule="nonzero"/></clipPath><clipPath id="b65b65a566"><path d="M 241.511719 152.878906 L 181.910156 102.558594 L 202.714844 77.917969 L 262.316406 128.238281 Z M 241.511719 152.878906 " clip-rule="nonzero"/></clipPath><clipPath id="a8a85d47d4"><path d="M 241.511719 152.878906 L 181.910156 102.558594 L 202.714844 77.917969 L 262.316406 128.238281 Z M 241.511719 152.878906 " clip-rule="nonzero"/></clipPath><clipPath id="9c48647e7d"><path d="M 200 104 L 203 104 L 203 107 L 200 107 Z M 200 104 " clip-rule="nonzero"/></clipPath><clipPath id="06ce328c4e"><path d="M 241.511719 152.878906 L 181.910156 102.558594 L 202.714844 77.917969 L 262.316406 128.238281 Z M 241.511719 152.878906 " clip-rule="nonzero"/></clipPath><clipPath id="86ecd7a08e"><path d="M 241.511719 152.878906 L 181.910156 102.558594 L 202.714844 77.917969 L 262.316406 128.238281 Z M 241.511719 152.878906 " clip-rule="nonzero"/></clipPath><clipPath id="4d9ddf667e"><path d="M 142.191406 120.714844 L 153.707031 120.714844 L 153.707031 130.367188 L 142.191406 130.367188 Z M 142.191406 120.714844 " clip-rule="nonzero"/></clipPath><clipPath id="28c162b415"><path d="M 143.128906 122.398438 C 142.253906 123.847656 142.871094 125.257812 143.648438 126.003906 L 148.199219 130.367188 L 152.652344 126.019531 C 153.375 125.214844 153.652344 124.363281 153.496094 123.410156 C 153.285156 122.097656 152.203125 121.078125 150.863281 120.929688 C 150.042969 120.84375 149.25 121.074219 148.632812 121.589844 C 148.464844 121.726562 148.316406 121.882812 148.1875 122.050781 C 148.03125 121.859375 147.851562 121.683594 147.648438 121.527344 C 146.9375 120.988281 146.03125 120.773438 145.160156 120.941406 C 144.335938 121.101562 143.597656 121.632812 143.128906 122.398438 " clip-rule="nonzero"/></clipPath><clipPath id="af15010dd6"><path d="M 151.273438 130.273438 L 157.605469 130.273438 L 157.605469 135.585938 L 151.273438 135.585938 Z M 151.273438 130.273438 " clip-rule="nonzero"/></clipPath><clipPath id="65343e8620"><path d="M 151.789062 131.199219 C 151.304688 131.996094 151.644531 132.773438 152.074219 133.183594 L 154.574219 135.585938 L 157.023438 133.191406 C 157.421875 132.75 157.574219 132.28125 157.488281 131.757812 C 157.371094 131.035156 156.777344 130.472656 156.039062 130.394531 C 155.589844 130.34375 155.152344 130.472656 154.8125 130.753906 C 154.722656 130.832031 154.640625 130.917969 154.566406 131.007812 C 154.484375 130.902344 154.382812 130.808594 154.273438 130.722656 C 153.878906 130.425781 153.382812 130.308594 152.902344 130.398438 C 152.449219 130.484375 152.042969 130.777344 151.789062 131.199219 " clip-rule="nonzero"/></clipPath></defs><rect x="-37.5" width="450" fill="#ffffff" y="-37.499999" height="449.999989" fill-opacity="1"/><rect x="-37.5" width="450" fill="#ffffff" y="-37.499999" height="449.999989" fill-opacity="1"/><rect x="-37.5" width="450" fill="#000000" y="-37.499999" height="449.999989" fill-opacity="1"/><g clip-path="url(#36bc997fce)"><path fill="#ffffff" d="M 170.773438 215.171875 C 170.710938 219.527344 172.046875 223.398438 174.769531 225.851562 C 178.863281 229.539062 185.910156 229.542969 190.457031 227.675781 C 194.191406 226.144531 196.363281 223.390625 198.671875 220.472656 C 201.40625 217.007812 204.511719 213.078125 210.351562 211.796875 C 213.425781 211.117188 216.691406 211.292969 220.046875 212.3125 C 221.476562 212.742188 222.28125 214.25 221.847656 215.679688 C 221.417969 217.109375 219.910156 217.910156 218.480469 217.480469 C 216.015625 216.734375 213.667969 216.597656 211.511719 217.070312 C 207.554688 217.941406 205.503906 220.535156 202.910156 223.820312 C 200.398438 227 197.550781 230.601562 192.507812 232.671875 C 190.011719 233.699219 186.960938 234.328125 183.8125 234.328125 C 179.359375 234.328125 174.710938 233.066406 171.15625 229.867188 C 167.121094 226.234375 165.195312 220.550781 165.441406 214.355469 C 135.28125 208.4375 112.523438 181.863281 112.523438 149.976562 C 112.523438 113.730469 141.898438 84.347656 178.144531 84.347656 C 183.296875 84.347656 188.320312 84.941406 193.128906 86.066406 C 191.628906 85.957031 190.09375 85.890625 188.558594 85.890625 C 157.066406 85.890625 131.539062 111.421875 131.539062 142.914062 C 131.539062 165.253906 144.394531 184.601562 163.105469 193.9375 C 161.527344 189.410156 161.3125 185.519531 161.289062 184.839844 C 160.835938 172.816406 168.34375 161.191406 180.445312 154.863281 C 180.695312 154.546875 181.144531 153.867188 181.253906 152.894531 C 181.4375 151.359375 180.648438 150.238281 180.445312 149.976562 C 180.445312 149.976562 163.753906 136.808594 173.960938 115.742188 C 175.722656 116.347656 178.523438 117.589844 181.144531 120.140625 C 182.5625 121.511719 183.566406 122.917969 184.257812 124.074219 C 185.308594 123.554688 186.644531 123.015625 188.246094 122.65625 C 191.605469 121.902344 194.46875 122.289062 196.195312 122.691406 C 196.195312 122.691406 197.113281 114.816406 204.753906 113.195312 C 219.574219 139.8125 198.507812 152.085938 198.507812 152.085938 L 197.816406 156.484375 L 198.972656 190.980469 C 198.972656 190.980469 204.871094 192.230469 205.035156 197.515625 C 223.117188 192.070312 237.410156 177.886719 243.019531 159.863281 C 238.253906 191.410156 211.03125 215.597656 178.144531 215.597656 C 175.652344 215.59375 173.195312 215.445312 170.773438 215.171875 Z M 170.773438 215.171875 " fill-opacity="1" fill-rule="nonzero"/></g><g clip-path="url(#1d03768b1d)"><g clip-path="url(#554c1367f4)"><g clip-path="url(#f008865cda)"><path fill="#ffffff" d="M 199.15625 98.003906 C 199.113281 97.976562 199.070312 97.953125 199.027344 97.929688 C 198.992188 97.90625 198.953125 97.886719 198.917969 97.867188 C 198.164062 97.945312 197.496094 98.046875 196.921875 98.195312 C 197.023438 98.246094 197.160156 98.316406 197.324219 98.402344 C 197.375 98.429688 197.429688 98.460938 197.488281 98.492188 C 197.515625 98.503906 197.546875 98.519531 197.578125 98.535156 C 197.609375 98.554688 197.636719 98.570312 197.667969 98.585938 C 197.792969 98.65625 197.929688 98.726562 198.078125 98.808594 C 198.152344 98.847656 198.230469 98.890625 198.308594 98.933594 C 198.347656 98.953125 198.386719 98.976562 198.429688 98.996094 C 198.46875 99.019531 198.511719 99.042969 198.554688 99.066406 C 198.722656 99.160156 198.902344 99.261719 199.089844 99.367188 C 199.847656 99.796875 200.761719 100.324219 201.785156 100.96875 C 202.8125 101.609375 203.953125 102.363281 205.171875 103.222656 C 206.390625 104.085938 207.679688 105.058594 209.007812 106.132812 C 209.050781 106.167969 209.089844 106.203125 209.132812 106.234375 C 209.175781 106.269531 209.214844 106.304688 209.257812 106.339844 C 209.339844 106.40625 209.421875 106.476562 209.507812 106.542969 C 209.589844 106.613281 209.675781 106.683594 209.757812 106.753906 C 209.800781 106.785156 209.84375 106.820312 209.882812 106.855469 C 209.925781 106.890625 209.96875 106.925781 210.007812 106.960938 C 210.175781 107.105469 210.34375 107.246094 210.515625 107.390625 C 210.554688 107.429688 210.597656 107.464844 210.640625 107.5 C 210.683594 107.535156 210.726562 107.574219 210.765625 107.609375 C 210.851562 107.683594 210.9375 107.757812 211.019531 107.832031 C 211.105469 107.90625 211.1875 107.980469 211.273438 108.054688 C 211.316406 108.089844 211.359375 108.128906 211.402344 108.164062 C 211.445312 108.203125 211.484375 108.242188 211.527344 108.277344 C 211.695312 108.429688 211.867188 108.582031 212.039062 108.734375 C 212.121094 108.8125 212.207031 108.890625 212.292969 108.96875 C 212.375 109.046875 212.460938 109.125 212.546875 109.203125 C 212.714844 109.359375 212.886719 109.515625 213.054688 109.679688 C 213.226562 109.839844 213.394531 110 213.566406 110.160156 C 213.734375 110.324219 213.90625 110.492188 214.074219 110.65625 C 214.160156 110.738281 214.246094 110.820312 214.328125 110.902344 C 214.414062 110.988281 214.496094 111.074219 214.582031 111.15625 C 214.667969 111.242188 214.75 111.328125 214.835938 111.410156 C 214.921875 111.496094 215.003906 111.582031 215.089844 111.667969 C 215.257812 111.839844 215.425781 112.011719 215.59375 112.183594 L 215.71875 112.316406 L 215.84375 112.445312 C 215.929688 112.535156 216.011719 112.621094 216.09375 112.710938 C 216.179688 112.796875 216.261719 112.886719 216.347656 112.976562 C 216.429688 113.0625 216.511719 113.152344 216.59375 113.242188 C 216.761719 113.421875 216.925781 113.601562 217.09375 113.785156 C 217.75 114.511719 218.402344 115.253906 219.042969 116.015625 C 219.679688 116.773438 220.304688 117.550781 220.917969 118.339844 C 221.527344 119.128906 222.121094 119.929688 222.703125 120.734375 C 223.277344 121.546875 223.835938 122.363281 224.375 123.183594 C 224.507812 123.390625 224.640625 123.597656 224.773438 123.800781 C 224.839844 123.90625 224.90625 124.007812 224.972656 124.109375 C 225.035156 124.214844 225.101562 124.316406 225.164062 124.417969 C 225.230469 124.523438 225.296875 124.625 225.359375 124.730469 L 225.457031 124.882812 L 225.550781 125.039062 C 225.675781 125.246094 225.800781 125.453125 225.925781 125.65625 C 225.988281 125.761719 226.050781 125.863281 226.113281 125.96875 C 226.171875 126.070312 226.234375 126.171875 226.292969 126.277344 C 226.355469 126.378906 226.414062 126.484375 226.476562 126.585938 C 226.535156 126.6875 226.59375 126.792969 226.652344 126.894531 C 226.773438 127.101562 226.890625 127.308594 227.007812 127.511719 C 227.121094 127.71875 227.234375 127.921875 227.347656 128.128906 C 227.460938 128.332031 227.570312 128.539062 227.679688 128.742188 C 227.734375 128.84375 227.789062 128.945312 227.84375 129.046875 C 227.902344 129.148438 227.953125 129.25 228.007812 129.355469 C 228.113281 129.558594 228.21875 129.761719 228.324219 129.964844 C 228.351562 130.011719 228.375 130.0625 228.402344 130.113281 C 228.429688 130.164062 228.453125 130.214844 228.480469 130.265625 C 228.53125 130.367188 228.582031 130.46875 228.632812 130.570312 C 228.679688 130.667969 228.730469 130.769531 228.78125 130.871094 C 228.808594 130.921875 228.832031 130.96875 228.859375 131.019531 C 228.882812 131.070312 228.90625 131.121094 228.929688 131.171875 C 229.027344 131.371094 229.125 131.570312 229.222656 131.769531 C 229.246094 131.816406 229.269531 131.867188 229.292969 131.917969 C 229.316406 131.964844 229.339844 132.015625 229.363281 132.066406 C 229.410156 132.164062 229.457031 132.261719 229.5 132.363281 C 229.546875 132.460938 229.59375 132.558594 229.640625 132.65625 C 229.664062 132.707031 229.683594 132.753906 229.707031 132.800781 C 229.730469 132.851562 229.753906 132.898438 229.773438 132.949219 C 230.488281 134.511719 231.109375 136.011719 231.644531 137.414062 C 232.175781 138.8125 232.621094 140.117188 232.988281 141.277344 C 233.355469 142.4375 233.640625 143.460938 233.867188 144.308594 C 233.921875 144.519531 233.976562 144.71875 234.027344 144.90625 C 234.050781 145 234.074219 145.09375 234.09375 145.179688 C 234.117188 145.269531 234.136719 145.355469 234.160156 145.4375 C 234.199219 145.601562 234.238281 145.753906 234.273438 145.894531 C 234.308594 146.035156 234.335938 146.164062 234.363281 146.277344 C 234.46875 146.734375 234.523438 146.976562 234.523438 146.976562 C 234.523438 146.976562 234.472656 146.734375 234.375 146.273438 C 234.351562 146.160156 234.328125 146.03125 234.292969 145.890625 C 234.261719 145.75 234.226562 145.597656 234.191406 145.429688 C 234.171875 145.347656 234.152344 145.261719 234.132812 145.171875 C 234.109375 145.082031 234.089844 144.992188 234.066406 144.898438 C 234.019531 144.707031 233.972656 144.507812 233.921875 144.292969 C 233.710938 143.445312 233.445312 142.414062 233.097656 141.242188 C 232.753906 140.074219 232.335938 138.761719 231.832031 137.34375 C 231.324219 135.929688 230.730469 134.410156 230.042969 132.832031 C 230.023438 132.78125 230 132.730469 229.980469 132.683594 C 229.957031 132.632812 229.933594 132.582031 229.914062 132.535156 C 229.867188 132.433594 229.824219 132.335938 229.78125 132.234375 C 229.738281 132.136719 229.691406 132.035156 229.648438 131.933594 C 229.625 131.886719 229.601562 131.835938 229.578125 131.785156 C 229.558594 131.734375 229.535156 131.683594 229.511719 131.632812 C 229.417969 131.433594 229.324219 131.230469 229.230469 131.027344 C 229.207031 130.976562 229.183594 130.925781 229.160156 130.875 C 229.136719 130.824219 229.113281 130.773438 229.089844 130.722656 C 229.039062 130.621094 228.992188 130.519531 228.941406 130.417969 C 228.894531 130.316406 228.84375 130.214844 228.796875 130.109375 C 228.769531 130.058594 228.746094 130.007812 228.722656 129.957031 C 228.695312 129.90625 228.671875 129.855469 228.644531 129.800781 C 228.542969 129.597656 228.441406 129.390625 228.339844 129.183594 C 228.289062 129.082031 228.234375 128.976562 228.183594 128.875 C 228.128906 128.769531 228.078125 128.667969 228.023438 128.5625 C 227.917969 128.355469 227.8125 128.148438 227.699219 127.941406 C 227.589844 127.730469 227.480469 127.523438 227.371094 127.3125 C 227.257812 127.105469 227.140625 126.894531 227.027344 126.6875 C 226.96875 126.582031 226.914062 126.476562 226.855469 126.371094 C 226.796875 126.265625 226.738281 126.160156 226.679688 126.058594 C 226.621094 125.953125 226.558594 125.847656 226.5 125.742188 C 226.441406 125.636719 226.382812 125.53125 226.320312 125.425781 C 226.199219 125.21875 226.078125 125.007812 225.957031 124.796875 L 225.863281 124.636719 L 225.769531 124.480469 C 225.707031 124.375 225.644531 124.273438 225.582031 124.167969 C 225.519531 124.0625 225.453125 123.957031 225.390625 123.851562 C 225.328125 123.746094 225.261719 123.640625 225.199219 123.535156 C 225.070312 123.328125 224.9375 123.117188 224.808594 122.90625 C 224.28125 122.070312 223.734375 121.238281 223.171875 120.410156 C 222.605469 119.582031 222.019531 118.765625 221.421875 117.957031 C 220.820312 117.152344 220.207031 116.355469 219.578125 115.574219 C 218.945312 114.796875 218.304688 114.03125 217.652344 113.285156 C 217.488281 113.097656 217.324219 112.914062 217.160156 112.730469 C 217.078125 112.636719 217 112.542969 216.914062 112.453125 C 216.832031 112.363281 216.75 112.273438 216.667969 112.179688 C 216.585938 112.089844 216.5 112 216.417969 111.910156 L 216.296875 111.773438 L 216.171875 111.640625 C 216.003906 111.460938 215.835938 111.28125 215.671875 111.105469 C 215.589844 111.015625 215.503906 110.929688 215.421875 110.84375 C 215.335938 110.753906 215.253906 110.667969 215.167969 110.582031 C 215.085938 110.496094 215 110.40625 214.917969 110.320312 C 214.835938 110.234375 214.75 110.148438 214.664062 110.0625 C 214.496094 109.894531 214.328125 109.722656 214.160156 109.554688 C 213.992188 109.386719 213.824219 109.21875 213.65625 109.054688 C 213.488281 108.886719 213.316406 108.726562 213.148438 108.5625 C 213.066406 108.484375 212.980469 108.402344 212.894531 108.320312 C 212.8125 108.238281 212.730469 108.160156 212.644531 108.082031 C 212.472656 107.921875 212.304688 107.765625 212.136719 107.609375 C 212.09375 107.570312 212.054688 107.53125 212.011719 107.492188 C 211.96875 107.453125 211.925781 107.414062 211.886719 107.375 C 211.800781 107.296875 211.714844 107.222656 211.632812 107.144531 C 211.546875 107.070312 211.464844 106.992188 211.378906 106.914062 C 211.339844 106.878906 211.296875 106.839844 211.253906 106.800781 C 211.210938 106.765625 211.171875 106.726562 211.128906 106.691406 C 210.960938 106.542969 210.792969 106.394531 210.625 106.246094 C 210.585938 106.207031 210.542969 106.171875 210.5 106.136719 C 210.460938 106.101562 210.417969 106.0625 210.375 106.027344 C 210.292969 105.957031 210.207031 105.882812 210.125 105.8125 C 210.042969 105.738281 209.960938 105.667969 209.878906 105.597656 C 209.835938 105.5625 209.792969 105.527344 209.753906 105.492188 C 209.710938 105.457031 209.671875 105.421875 209.628906 105.386719 C 208.304688 104.269531 207.015625 103.253906 205.796875 102.355469 C 204.578125 101.457031 203.433594 100.671875 202.402344 100 C 201.375 99.324219 200.457031 98.769531 199.695312 98.320312 C 199.503906 98.207031 199.324219 98.101562 199.15625 98.003906 " fill-opacity="1" fill-rule="nonzero"/></g></g></g><g clip-path="url(#4757e40076)"><g clip-path="url(#bf9683c264)"><g clip-path="url(#ad7694ed7f)"><path fill="#ffffff" d="M 190.816406 93.316406 C 191.617188 94.585938 192.148438 95.484375 192.359375 96.253906 C 192.355469 96.257812 192.351562 96.257812 192.351562 96.257812 C 191.957031 96.113281 191.503906 95.894531 190.949219 95.621094 C 191.375 95.933594 191.730469 96.195312 192.011719 96.4375 C 190.800781 97.011719 189.082031 97.167969 186.347656 97.328125 C 189.035156 97.554688 190.679688 97.757812 191.605469 98.378906 C 191.207031 98.625 190.722656 98.898438 190.144531 99.214844 C 190.832031 98.9375 191.390625 98.71875 191.855469 98.570312 C 191.859375 98.574219 191.863281 98.578125 191.863281 98.582031 C 191.320312 99.363281 190.390625 100.277344 189.015625 101.574219 C 190.496094 100.457031 191.539062 99.703125 192.375 99.308594 C 192.375 99.3125 192.378906 99.3125 192.378906 99.316406 C 192.136719 99.753906 191.8125 100.273438 191.402344 100.90625 C 191.820312 100.394531 192.171875 99.96875 192.484375 99.621094 C 192.792969 100.738281 192.554688 102.46875 192.085938 105.253906 C 192.941406 102.429688 193.523438 100.691406 194.375 99.59375 C 194.535156 99.945312 194.699219 100.382812 194.890625 100.90625 C 194.765625 100.261719 194.671875 99.734375 194.628906 99.292969 C 194.632812 99.289062 194.636719 99.285156 194.640625 99.28125 C 195.316406 99.660156 196.035156 100.410156 197.042969 101.523438 C 196.242188 100.257812 195.710938 99.355469 195.503906 98.585938 C 195.503906 98.585938 195.507812 98.582031 195.511719 98.582031 C 195.902344 98.730469 196.359375 98.945312 196.910156 99.21875 C 196.484375 98.910156 196.132812 98.644531 195.847656 98.402344 C 197.058594 97.828125 198.777344 97.671875 201.515625 97.511719 C 198.824219 97.285156 197.179688 97.085938 196.253906 96.460938 C 196.652344 96.214844 197.136719 95.945312 197.71875 95.625 C 197.027344 95.902344 196.46875 96.121094 196.003906 96.269531 C 196.003906 96.265625 196 96.265625 195.996094 96.261719 C 196.539062 95.476562 197.472656 94.5625 198.84375 93.265625 C 197.363281 94.382812 196.320312 95.140625 195.484375 95.53125 C 195.484375 95.53125 195.484375 95.527344 195.480469 95.527344 C 195.722656 95.085938 196.050781 94.570312 196.457031 93.9375 C 196.042969 94.445312 195.691406 94.871094 195.378906 95.21875 C 195.070312 94.105469 195.304688 92.371094 195.773438 89.589844 C 194.921875 92.410156 194.335938 94.152344 193.484375 95.25 C 193.324219 94.894531 193.160156 94.460938 192.96875 93.933594 C 193.09375 94.578125 193.1875 95.105469 193.230469 95.546875 C 193.226562 95.554688 193.222656 95.558594 193.21875 95.558594 C 192.546875 95.179688 191.824219 94.433594 190.816406 93.316406 " fill-opacity="1" fill-rule="nonzero"/></g></g></g><g clip-path="url(#b74d057691)"><g clip-path="url(#5556e3e669)"><g clip-path="url(#c009f1c436)"><path fill="#ffffff" d="M 217.902344 94.695312 C 217.859375 94.675781 217.820312 94.660156 217.777344 94.640625 C 217.742188 94.625 217.703125 94.609375 217.667969 94.59375 C 216.980469 94.75 216.382812 94.917969 215.867188 95.117188 C 215.96875 95.15625 216.101562 95.207031 216.261719 95.265625 C 216.3125 95.285156 216.367188 95.308594 216.421875 95.328125 C 216.449219 95.339844 216.480469 95.351562 216.511719 95.363281 C 216.539062 95.375 216.570312 95.386719 216.601562 95.398438 C 216.722656 95.445312 216.855469 95.5 217 95.554688 C 217.074219 95.585938 217.148438 95.613281 217.226562 95.644531 C 217.265625 95.660156 217.304688 95.675781 217.34375 95.691406 C 217.382812 95.707031 217.425781 95.726562 217.46875 95.742188 C 217.632812 95.808594 217.808594 95.882812 217.996094 95.960938 C 218.738281 96.269531 219.636719 96.65625 220.652344 97.132812 C 221.664062 97.613281 222.800781 98.175781 224.015625 98.835938 C 225.230469 99.492188 226.523438 100.246094 227.867188 101.089844 C 227.910156 101.117188 227.949219 101.144531 227.992188 101.171875 C 228.035156 101.195312 228.074219 101.222656 228.117188 101.25 C 228.203125 101.304688 228.285156 101.359375 228.371094 101.414062 C 228.453125 101.46875 228.539062 101.523438 228.625 101.578125 C 228.667969 101.605469 228.710938 101.632812 228.75 101.660156 C 228.792969 101.6875 228.835938 101.714844 228.878906 101.742188 C 229.046875 101.855469 229.21875 101.96875 229.390625 102.082031 C 229.433594 102.109375 229.476562 102.140625 229.519531 102.167969 C 229.5625 102.195312 229.605469 102.226562 229.648438 102.253906 C 229.734375 102.3125 229.816406 102.371094 229.902344 102.429688 C 229.992188 102.488281 230.078125 102.546875 230.164062 102.605469 C 230.207031 102.636719 230.25 102.664062 230.292969 102.695312 C 230.335938 102.726562 230.378906 102.753906 230.421875 102.785156 C 230.59375 102.90625 230.765625 103.027344 230.941406 103.152344 C 231.027344 103.210938 231.113281 103.273438 231.199219 103.335938 C 231.285156 103.398438 231.375 103.460938 231.460938 103.523438 C 231.632812 103.648438 231.808594 103.773438 231.980469 103.90625 C 232.15625 104.035156 232.328125 104.164062 232.503906 104.292969 C 232.679688 104.425781 232.851562 104.558594 233.027344 104.691406 C 233.113281 104.757812 233.203125 104.828125 233.289062 104.894531 C 233.375 104.960938 233.460938 105.03125 233.550781 105.097656 C 233.636719 105.167969 233.722656 105.234375 233.8125 105.304688 C 233.898438 105.371094 233.984375 105.441406 234.070312 105.511719 C 234.246094 105.652344 234.417969 105.792969 234.59375 105.933594 L 234.722656 106.039062 L 234.855469 106.144531 C 234.941406 106.21875 235.027344 106.289062 235.113281 106.359375 C 235.199219 106.433594 235.285156 106.503906 235.375 106.578125 C 235.460938 106.648438 235.546875 106.722656 235.632812 106.796875 C 235.804688 106.941406 235.976562 107.089844 236.148438 107.238281 C 236.835938 107.835938 237.515625 108.449219 238.191406 109.074219 C 238.859375 109.707031 239.523438 110.351562 240.175781 111.007812 C 240.820312 111.667969 241.457031 112.339844 242.078125 113.019531 C 242.699219 113.699219 243.300781 114.390625 243.890625 115.085938 C 244.035156 115.261719 244.179688 115.4375 244.324219 115.609375 C 244.398438 115.699219 244.46875 115.785156 244.542969 115.871094 C 244.613281 115.960938 244.683594 116.046875 244.753906 116.136719 C 244.824219 116.222656 244.894531 116.3125 244.964844 116.398438 L 245.074219 116.53125 L 245.175781 116.664062 C 245.316406 116.839844 245.453125 117.015625 245.589844 117.191406 C 245.660156 117.277344 245.726562 117.367188 245.796875 117.457031 C 245.863281 117.542969 245.929688 117.632812 245.996094 117.722656 C 246.066406 117.808594 246.132812 117.898438 246.199219 117.984375 C 246.265625 118.074219 246.332031 118.164062 246.398438 118.25 C 246.527344 118.425781 246.660156 118.605469 246.789062 118.78125 C 246.917969 118.957031 247.046875 119.132812 247.171875 119.308594 C 247.300781 119.484375 247.421875 119.660156 247.546875 119.835938 C 247.609375 119.925781 247.671875 120.011719 247.730469 120.101562 C 247.792969 120.1875 247.855469 120.277344 247.914062 120.363281 C 248.035156 120.539062 248.152344 120.714844 248.273438 120.890625 C 248.304688 120.933594 248.332031 120.976562 248.363281 121.019531 C 248.390625 121.066406 248.421875 121.109375 248.449219 121.152344 C 248.507812 121.238281 248.566406 121.328125 248.621094 121.414062 C 248.679688 121.5 248.738281 121.585938 248.796875 121.675781 C 248.824219 121.71875 248.851562 121.761719 248.882812 121.804688 C 248.910156 121.847656 248.9375 121.890625 248.964844 121.933594 C 249.078125 122.109375 249.1875 122.28125 249.296875 122.453125 C 249.324219 122.496094 249.351562 122.539062 249.382812 122.582031 C 249.40625 122.625 249.433594 122.667969 249.460938 122.710938 C 249.515625 122.796875 249.570312 122.882812 249.621094 122.96875 C 249.675781 123.054688 249.730469 123.136719 249.78125 123.222656 C 249.808594 123.265625 249.835938 123.308594 249.863281 123.351562 C 249.886719 123.394531 249.914062 123.4375 249.9375 123.480469 C 250.769531 124.835938 251.507812 126.148438 252.152344 127.378906 C 252.796875 128.613281 253.351562 129.761719 253.816406 130.789062 C 254.285156 131.820312 254.660156 132.730469 254.960938 133.480469 C 255.035156 133.671875 255.109375 133.847656 255.175781 134.015625 C 255.207031 134.101562 255.238281 134.183594 255.269531 134.261719 C 255.296875 134.339844 255.328125 134.417969 255.355469 134.492188 C 255.410156 134.636719 255.464844 134.773438 255.511719 134.898438 C 255.558594 135.023438 255.597656 135.136719 255.636719 135.242188 C 255.785156 135.648438 255.863281 135.867188 255.863281 135.867188 C 255.863281 135.867188 255.789062 135.648438 255.648438 135.234375 C 255.613281 135.132812 255.574219 135.019531 255.53125 134.890625 C 255.484375 134.765625 255.4375 134.628906 255.382812 134.480469 C 255.355469 134.40625 255.328125 134.328125 255.300781 134.25 C 255.273438 134.167969 255.242188 134.085938 255.210938 134.003906 C 255.148438 133.832031 255.082031 133.652344 255.007812 133.464844 C 254.722656 132.703125 254.363281 131.785156 253.914062 130.746094 C 253.46875 129.707031 252.9375 128.546875 252.316406 127.296875 C 251.691406 126.050781 250.980469 124.71875 250.171875 123.339844 C 250.148438 123.296875 250.121094 123.253906 250.097656 123.210938 C 250.070312 123.167969 250.046875 123.125 250.019531 123.082031 C 249.96875 122.996094 249.917969 122.90625 249.863281 122.820312 C 249.8125 122.734375 249.761719 122.644531 249.707031 122.558594 C 249.683594 122.515625 249.65625 122.472656 249.628906 122.425781 C 249.601562 122.382812 249.578125 122.339844 249.550781 122.296875 C 249.441406 122.121094 249.335938 121.945312 249.226562 121.769531 C 249.199219 121.726562 249.171875 121.679688 249.144531 121.636719 C 249.117188 121.59375 249.089844 121.550781 249.058594 121.503906 C 249.003906 121.417969 248.949219 121.328125 248.890625 121.238281 C 248.835938 121.152344 248.78125 121.0625 248.722656 120.972656 C 248.695312 120.929688 248.667969 120.882812 248.636719 120.839844 C 248.609375 120.796875 248.578125 120.75 248.550781 120.707031 C 248.433594 120.527344 248.320312 120.351562 248.203125 120.171875 C 248.144531 120.082031 248.082031 119.992188 248.023438 119.902344 C 247.960938 119.8125 247.902344 119.726562 247.84375 119.636719 C 247.722656 119.457031 247.601562 119.273438 247.476562 119.097656 C 247.351562 118.917969 247.226562 118.738281 247.101562 118.554688 C 246.972656 118.375 246.847656 118.199219 246.71875 118.015625 C 246.652344 117.925781 246.589844 117.835938 246.523438 117.746094 C 246.457031 117.65625 246.394531 117.566406 246.328125 117.476562 C 246.261719 117.386719 246.195312 117.296875 246.128906 117.207031 C 246.0625 117.117188 245.996094 117.023438 245.929688 116.933594 C 245.792969 116.757812 245.65625 116.578125 245.523438 116.394531 L 245.417969 116.261719 L 245.316406 116.125 C 245.246094 116.035156 245.175781 115.949219 245.109375 115.859375 C 245.039062 115.769531 244.96875 115.679688 244.898438 115.589844 C 244.828125 115.496094 244.757812 115.410156 244.6875 115.320312 C 244.542969 115.140625 244.402344 114.960938 244.257812 114.785156 C 243.679688 114.070312 243.085938 113.363281 242.476562 112.664062 C 241.863281 111.96875 241.234375 111.277344 240.59375 110.601562 C 239.953125 109.925781 239.296875 109.261719 238.632812 108.613281 C 237.96875 107.964844 237.292969 107.332031 236.609375 106.714844 C 236.4375 106.5625 236.265625 106.410156 236.097656 106.261719 C 236.011719 106.183594 235.925781 106.109375 235.839844 106.035156 C 235.753906 105.957031 235.667969 105.882812 235.582031 105.808594 C 235.496094 105.734375 235.410156 105.660156 235.324219 105.585938 L 235.195312 105.476562 L 235.0625 105.367188 C 234.890625 105.21875 234.71875 105.074219 234.546875 104.929688 C 234.460938 104.855469 234.371094 104.785156 234.285156 104.714844 C 234.199219 104.644531 234.113281 104.574219 234.027344 104.503906 C 233.9375 104.433594 233.851562 104.359375 233.765625 104.289062 C 233.679688 104.222656 233.59375 104.152344 233.503906 104.082031 C 233.332031 103.945312 233.15625 103.804688 232.984375 103.667969 C 232.8125 103.535156 232.636719 103.398438 232.464844 103.265625 C 232.292969 103.128906 232.117188 103 231.945312 102.867188 C 231.859375 102.804688 231.769531 102.738281 231.683594 102.671875 C 231.597656 102.609375 231.511719 102.542969 231.425781 102.480469 C 231.25 102.351562 231.078125 102.226562 230.90625 102.101562 C 230.863281 102.070312 230.820312 102.039062 230.777344 102.007812 C 230.734375 101.976562 230.691406 101.945312 230.648438 101.914062 C 230.5625 101.851562 230.476562 101.792969 230.390625 101.730469 C 230.304688 101.667969 230.21875 101.609375 230.132812 101.546875 C 230.089844 101.515625 230.050781 101.488281 230.007812 101.457031 C 229.964844 101.425781 229.921875 101.398438 229.878906 101.367188 C 229.707031 101.25 229.535156 101.132812 229.367188 101.015625 C 229.324219 100.984375 229.28125 100.957031 229.238281 100.925781 C 229.195312 100.898438 229.15625 100.871094 229.113281 100.839844 C 229.027344 100.785156 228.941406 100.726562 228.859375 100.671875 C 228.773438 100.613281 228.691406 100.558594 228.605469 100.5 C 228.5625 100.472656 228.523438 100.445312 228.480469 100.414062 C 228.4375 100.386719 228.394531 100.359375 228.355469 100.332031 C 227.011719 99.449219 225.714844 98.660156 224.492188 97.96875 C 223.273438 97.277344 222.132812 96.679688 221.113281 96.175781 C 220.089844 95.667969 219.183594 95.257812 218.433594 94.925781 C 218.246094 94.84375 218.070312 94.765625 217.902344 94.695312 " fill-opacity="1" fill-rule="nonzero"/></g></g></g><g clip-path="url(#d6ed9c01bf)"><g clip-path="url(#de90901c8b)"><g clip-path="url(#9787c92945)"><path fill="#ffffff" d="M 209.710938 91.304688 C 210.589844 92.382812 211.179688 93.152344 211.457031 93.839844 C 211.453125 93.839844 211.453125 93.84375 211.449219 93.84375 C 211.074219 93.75 210.628906 93.601562 210.089844 93.414062 C 210.515625 93.648438 210.871094 93.855469 211.160156 94.046875 C 210.109375 94.707031 208.546875 95.042969 206.046875 95.492188 C 208.542969 95.40625 210.078125 95.40625 211 95.878906 C 210.660156 96.148438 210.246094 96.453125 209.746094 96.808594 C 210.351562 96.476562 210.839844 96.214844 211.25 96.027344 C 211.253906 96.03125 211.257812 96.03125 211.261719 96.035156 C 210.847656 96.816406 210.09375 97.757812 208.972656 99.105469 C 210.210938 97.914062 211.085938 97.101562 211.8125 96.648438 C 211.8125 96.648438 211.8125 96.652344 211.816406 96.652344 C 211.640625 97.082031 211.398438 97.597656 211.09375 98.226562 C 211.417969 97.710938 211.695312 97.277344 211.945312 96.925781 C 212.351562 97.917969 212.328125 99.539062 212.203125 102.152344 C 212.675781 99.460938 213.019531 97.792969 213.683594 96.6875 C 213.867188 96.996094 214.070312 97.378906 214.304688 97.839844 C 214.117188 97.261719 213.972656 96.785156 213.882812 96.382812 C 213.886719 96.378906 213.886719 96.375 213.890625 96.371094 C 214.554688 96.644531 215.300781 97.253906 216.351562 98.167969 C 215.472656 97.09375 214.886719 96.324219 214.609375 95.636719 C 214.609375 95.636719 214.613281 95.632812 214.613281 95.632812 C 214.992188 95.722656 215.433594 95.871094 215.972656 96.0625 C 215.546875 95.824219 215.191406 95.621094 214.902344 95.429688 C 215.953125 94.769531 217.519531 94.433594 220.019531 93.984375 C 217.519531 94.070312 215.984375 94.070312 215.0625 93.597656 C 215.402344 93.324219 215.816406 93.023438 216.316406 92.667969 C 215.714844 93 215.222656 93.261719 214.8125 93.449219 C 214.808594 93.445312 214.804688 93.445312 214.804688 93.441406 C 215.21875 92.660156 215.972656 91.714844 217.089844 90.371094 C 215.855469 91.5625 214.980469 92.371094 214.253906 92.828125 C 214.25 92.824219 214.25 92.824219 214.25 92.820312 C 214.421875 92.390625 214.664062 91.878906 214.96875 91.25 C 214.644531 91.765625 214.367188 92.195312 214.121094 92.550781 C 213.710938 91.558594 213.738281 89.9375 213.859375 87.324219 C 213.386719 90.015625 213.042969 91.683594 212.382812 92.789062 C 212.195312 92.480469 211.996094 92.097656 211.761719 91.632812 C 211.949219 92.214844 212.09375 92.6875 212.183594 93.09375 C 212.179688 93.097656 212.175781 93.101562 212.171875 93.105469 C 211.511719 92.828125 210.765625 92.21875 209.710938 91.304688 " fill-opacity="1" fill-rule="nonzero"/></g></g></g><g clip-path="url(#827b93c598)"><g clip-path="url(#a943db09b4)"><g clip-path="url(#cde01641af)"><path fill="#ffffff" d="M 202.320312 91.800781 C 203.238281 90.378906 203.367188 90.34375 204.902344 91.0625 C 203.480469 90.136719 203.441406 90.007812 204.15625 88.476562 C 203.238281 89.894531 203.109375 89.933594 201.570312 89.214844 C 202.996094 90.136719 203.03125 90.265625 202.320312 91.800781 " fill-opacity="1" fill-rule="nonzero"/></g></g></g><g clip-path="url(#c1813b47a9)"><g clip-path="url(#9b0ff03204)"><g clip-path="url(#426acbfb33)"><path fill="#ffffff" d="M 220.773438 105.613281 C 221.691406 104.195312 221.820312 104.15625 223.355469 104.875 C 221.929688 103.953125 221.894531 103.824219 222.605469 102.289062 C 221.6875 103.710938 221.5625 103.746094 220.023438 103.027344 C 221.449219 103.953125 221.484375 104.078125 220.773438 105.613281 " fill-opacity="1" fill-rule="nonzero"/></g></g></g><g clip-path="url(#6558c53719)"><g clip-path="url(#c04b86d924)"><g clip-path="url(#7979631c66)"><path fill="#ffffff" d="M 194.0625 110.6875 C 194.980469 109.265625 195.109375 109.230469 196.644531 109.949219 C 195.222656 109.027344 195.183594 108.898438 195.898438 107.363281 C 194.980469 108.785156 194.851562 108.820312 193.3125 108.101562 C 194.738281 109.023438 194.773438 109.152344 194.0625 110.6875 " fill-opacity="1" fill-rule="nonzero"/></g></g></g><g clip-path="url(#23cc31adc2)"><g clip-path="url(#b65b65a566)"><g clip-path="url(#a8a85d47d4)"><path fill="#ffffff" d="M 201.726562 83.304688 C 202.300781 82.417969 202.378906 82.398438 203.339844 82.84375 C 202.449219 82.269531 202.425781 82.1875 202.871094 81.234375 C 202.300781 82.117188 202.21875 82.140625 201.261719 81.691406 C 202.148438 82.269531 202.171875 82.347656 201.726562 83.304688 " fill-opacity="1" fill-rule="nonzero"/></g></g></g><g clip-path="url(#9c48647e7d)"><g clip-path="url(#06ce328c4e)"><g clip-path="url(#86ecd7a08e)"><path fill="#ffffff" d="M 201.113281 106.875 C 201.6875 105.988281 201.765625 105.964844 202.726562 106.414062 C 201.835938 105.839844 201.8125 105.757812 202.257812 104.804688 C 201.6875 105.6875 201.605469 105.710938 200.648438 105.261719 C 201.535156 105.839844 201.558594 105.917969 201.113281 106.875 " fill-opacity="1" fill-rule="nonzero"/></g></g></g><g clip-path="url(#4d9ddf667e)"><g clip-path="url(#28c162b415)"><path fill="#ffffff" d="M 142.699219 120.886719 L 153.539062 120.886719 L 153.539062 130.367188 L 142.699219 130.367188 Z M 142.699219 120.886719 " fill-opacity="1" fill-rule="nonzero"/></g></g><g fill="#ffffff" fill-opacity="1"><g transform="translate(96.441978, 275.080631)"><g><path d="M 35.125 -7.75 C 35.34375 -7.78125 35.515625 -7.738281 35.640625 -7.625 C 35.773438 -7.519531 35.8125 -7.390625 35.75 -7.234375 C 34.84375 -4.890625 33.800781 -2.609375 32.625 -0.390625 C 31.457031 1.816406 30.078125 3.945312 28.484375 6 C 27.304688 7.550781 26.007812 9.023438 24.59375 10.421875 C 23.5625 11.410156 22.429688 12.289062 21.203125 13.0625 C 19.972656 13.832031 18.632812 14.453125 17.1875 14.921875 C 11.832031 16.617188 6.953125 15.867188 2.546875 12.671875 C 1.429688 11.859375 0.460938 10.929688 -0.359375 9.890625 C -1.191406 8.847656 -1.90625 7.734375 -2.5 6.546875 C -3.445312 4.679688 -4.1875 2.769531 -4.71875 0.8125 C -5.257812 -1.132812 -5.628906 -3.128906 -5.828125 -5.171875 C -5.898438 -6.117188 -5.945312 -7.109375 -5.96875 -8.140625 C -5.976562 -8.660156 -5.992188 -9.195312 -6.015625 -9.75 C -5.890625 -14.601562 -5.171875 -19.382812 -3.859375 -24.09375 C -2.554688 -28.800781 -0.546875 -33.367188 2.171875 -37.796875 C 3.753906 -40.367188 5.660156 -42.75 7.890625 -44.9375 C 9.742188 -46.769531 11.921875 -48.234375 14.421875 -49.328125 C 16.472656 -50.210938 18.648438 -50.578125 20.953125 -50.421875 C 21.660156 -50.378906 22.335938 -50.226562 22.984375 -49.96875 C 25.941406 -48.769531 27.957031 -46.796875 29.03125 -44.046875 C 29.082031 -43.941406 29.117188 -43.820312 29.140625 -43.6875 C 29.203125 -43.28125 29.003906 -42.988281 28.546875 -42.8125 C 28.097656 -42.601562 27.738281 -42.671875 27.46875 -43.015625 C 27.21875 -43.328125 27.007812 -43.65625 26.84375 -44 C 26.832031 -44.050781 26.800781 -44.109375 26.75 -44.171875 C 26 -45.453125 24.988281 -46.554688 23.71875 -47.484375 C 22.644531 -48.253906 21.503906 -48.722656 20.296875 -48.890625 C 19.097656 -49.066406 17.851562 -49.019531 16.5625 -48.75 C 15.6875 -48.53125 14.875 -48.226562 14.125 -47.84375 C 13.375 -47.457031 12.648438 -47.019531 11.953125 -46.53125 C 9.984375 -45.019531 8.253906 -43.300781 6.765625 -41.375 C 3.429688 -37.070312 0.953125 -32.414062 -0.671875 -27.40625 C -1.785156 -24.144531 -2.617188 -20.835938 -3.171875 -17.484375 C -3.722656 -14.140625 -3.898438 -10.757812 -3.703125 -7.34375 C -3.578125 -4.851562 -3.203125 -2.414062 -2.578125 -0.03125 C -1.953125 2.34375 -0.992188 4.644531 0.296875 6.875 C 1.710938 9.320312 3.753906 11.253906 6.421875 12.671875 C 8.796875 13.898438 11.207031 14.429688 13.65625 14.265625 C 16.113281 14.109375 18.375 13.320312 20.4375 11.90625 C 21.757812 10.976562 22.953125 9.925781 24.015625 8.75 C 25.472656 7.132812 26.796875 5.445312 27.984375 3.6875 C 29.179688 1.9375 30.304688 0.140625 31.359375 -1.703125 C 32.003906 -2.898438 32.625 -4.109375 33.21875 -5.328125 C 33.4375 -5.765625 33.65625 -6.195312 33.875 -6.625 C 34.007812 -6.90625 34.164062 -7.148438 34.34375 -7.359375 C 34.519531 -7.578125 34.78125 -7.707031 35.125 -7.75 Z M 35.125 -7.75 "/></g></g><g transform="translate(130.294515, 275.080631)"><g><path d="M 21.65625 -8.46875 C 21.832031 -8.695312 22.015625 -8.863281 22.203125 -8.96875 C 22.398438 -9.082031 22.519531 -9.082031 22.5625 -8.96875 C 22.601562 -8.863281 22.492188 -8.609375 22.234375 -8.203125 C 21.660156 -7.347656 20.8125 -6.53125 19.6875 -5.75 C 18.570312 -4.976562 17.335938 -4.316406 15.984375 -3.765625 C 14.628906 -3.222656 13.304688 -2.863281 12.015625 -2.6875 C 10.734375 -2.519531 9.644531 -2.609375 8.75 -2.953125 C 7.851562 -3.296875 7.300781 -3.972656 7.09375 -4.984375 C 6.34375 -3.765625 5.453125 -2.804688 4.421875 -2.109375 C 3.390625 -1.421875 2.410156 -1.132812 1.484375 -1.25 C 0.421875 -1.394531 -0.28125 -1.789062 -0.625 -2.4375 C -0.976562 -3.082031 -1.097656 -3.820312 -0.984375 -4.65625 C -0.867188 -5.5 -0.613281 -6.296875 -0.21875 -7.046875 C 0.0703125 -7.617188 0.484375 -8.15625 1.015625 -8.65625 C 1.554688 -9.15625 2.117188 -9.539062 2.703125 -9.8125 C 3.441406 -10.1875 4.175781 -10.351562 4.90625 -10.3125 C 5.644531 -10.28125 6.4375 -10.039062 7.28125 -9.59375 C 7.28125 -9.59375 7.289062 -9.613281 7.3125 -9.65625 C 7.3125 -9.738281 7.328125 -9.835938 7.359375 -9.953125 C 7.390625 -10.078125 7.460938 -10.179688 7.578125 -10.265625 C 7.722656 -10.378906 7.910156 -10.46875 8.140625 -10.53125 C 8.367188 -10.59375 8.585938 -10.601562 8.796875 -10.5625 C 9.140625 -10.488281 9.351562 -10.3125 9.4375 -10.03125 C 9.519531 -9.757812 9.535156 -9.457031 9.484375 -9.125 C 9.429688 -8.789062 9.375 -8.507812 9.3125 -8.28125 C 9.289062 -8.226562 9.28125 -8.179688 9.28125 -8.140625 C 8.9375 -6.722656 9.066406 -5.726562 9.671875 -5.15625 C 10.273438 -4.59375 11.148438 -4.332031 12.296875 -4.375 C 13.441406 -4.414062 14.660156 -4.65625 15.953125 -5.09375 C 17.242188 -5.53125 18.414062 -6.054688 19.46875 -6.671875 C 20.519531 -7.285156 21.25 -7.882812 21.65625 -8.46875 Z M 1.90625 -3.15625 C 2.351562 -2.851562 2.832031 -2.882812 3.34375 -3.25 C 3.863281 -3.613281 4.367188 -4.140625 4.859375 -4.828125 C 5.359375 -5.515625 5.769531 -6.195312 6.09375 -6.875 C 6.414062 -7.5625 6.597656 -8.082031 6.640625 -8.4375 C 5.609375 -8.988281 4.726562 -9.085938 4 -8.734375 C 3.269531 -8.378906 2.695312 -7.8125 2.28125 -7.03125 C 1.875 -6.25 1.640625 -5.472656 1.578125 -4.703125 C 1.515625 -3.941406 1.625 -3.425781 1.90625 -3.15625 Z M 1.90625 -3.15625 "/></g></g><g transform="translate(151.241779, 275.080631)"><g><path d="M 15.796875 -5.75 C 14.703125 -4.289062 13.65625 -3.351562 12.65625 -2.9375 C 11.664062 -2.519531 10.769531 -2.421875 9.96875 -2.640625 C 9.164062 -2.867188 8.472656 -3.21875 7.890625 -3.6875 C 7.304688 -4.164062 6.867188 -4.578125 6.578125 -4.921875 C 6.492188 -5.023438 6.414062 -5.109375 6.34375 -5.171875 C 8.238281 -1.691406 9.492188 1.382812 10.109375 4.0625 C 10.734375 6.75 10.894531 8.972656 10.59375 10.734375 C 10.300781 12.503906 9.710938 13.753906 8.828125 14.484375 C 7.941406 15.210938 6.945312 15.367188 5.84375 14.953125 C 4.738281 14.535156 3.679688 13.484375 2.671875 11.796875 C 1.660156 10.117188 0.878906 7.75 0.328125 4.6875 C -0.210938 1.632812 -0.351562 -2.164062 -0.09375 -6.71875 C 0.164062 -11.269531 0.992188 -16.632812 2.390625 -22.8125 C 2.734375 -24.257812 3.222656 -25.957031 3.859375 -27.90625 C 4.492188 -29.851562 5.28125 -31.707031 6.21875 -33.46875 C 7.15625 -35.226562 8.28125 -36.59375 9.59375 -37.5625 C 10.15625 -37.945312 10.78125 -38.203125 11.46875 -38.328125 C 13.226562 -38.640625 14.472656 -38.441406 15.203125 -37.734375 C 15.929688 -37.023438 16.273438 -35.96875 16.234375 -34.5625 C 16.191406 -33.164062 15.863281 -31.566406 15.25 -29.765625 C 14.644531 -27.960938 13.882812 -26.085938 12.96875 -24.140625 C 12.0625 -22.191406 11.097656 -20.328125 10.078125 -18.546875 C 9.066406 -16.765625 8.140625 -15.203125 7.296875 -13.859375 C 6.460938 -12.515625 5.8125 -11.53125 5.34375 -10.90625 C 5.21875 -10.71875 5.078125 -10.515625 4.921875 -10.296875 C 4.847656 -10.191406 4.765625 -10.078125 4.671875 -9.953125 C 6.210938 -7.734375 7.570312 -6.210938 8.75 -5.390625 C 9.9375 -4.578125 10.960938 -4.21875 11.828125 -4.3125 C 12.703125 -4.414062 13.441406 -4.734375 14.046875 -5.265625 C 14.648438 -5.804688 15.144531 -6.347656 15.53125 -6.890625 C 15.726562 -7.140625 15.898438 -7.335938 16.046875 -7.484375 C 16.203125 -7.640625 16.320312 -7.707031 16.40625 -7.6875 C 16.726562 -7.625 16.796875 -7.398438 16.609375 -7.015625 C 16.421875 -6.628906 16.148438 -6.207031 15.796875 -5.75 Z M 3.15625 -12.5 C 3.070312 -11.875 3.09375 -11.472656 3.21875 -11.296875 C 3.34375 -11.128906 3.625 -11.359375 4.0625 -11.984375 C 4.707031 -12.878906 5.507812 -14.109375 6.46875 -15.671875 C 7.4375 -17.242188 8.441406 -18.988281 9.484375 -20.90625 C 10.523438 -22.820312 11.460938 -24.753906 12.296875 -26.703125 C 13.140625 -28.660156 13.742188 -30.484375 14.109375 -32.171875 C 14.472656 -33.859375 14.460938 -35.269531 14.078125 -36.40625 C 13.910156 -36.882812 13.613281 -37.175781 13.1875 -37.28125 C 12.757812 -37.382812 12.296875 -37.304688 11.796875 -37.046875 C 10.753906 -36.453125 9.800781 -35.394531 8.9375 -33.875 C 8.082031 -32.351562 7.320312 -30.582031 6.65625 -28.5625 C 6 -26.550781 5.425781 -24.5 4.9375 -22.40625 C 4.457031 -20.3125 4.066406 -18.382812 3.765625 -16.625 C 3.460938 -14.875 3.257812 -13.5 3.15625 -12.5 Z M 7.0625 13.875 C 7.957031 13.476562 8.457031 12.582031 8.5625 11.1875 C 8.675781 9.789062 8.523438 8.125 8.109375 6.1875 C 7.703125 4.257812 7.15625 2.300781 6.46875 0.3125 C 5.789062 -1.675781 5.101562 -3.453125 4.40625 -5.015625 C 3.707031 -6.585938 3.128906 -7.703125 2.671875 -8.359375 C 2.390625 -4.867188 2.382812 -1.726562 2.65625 1.0625 C 2.925781 3.863281 3.335938 6.238281 3.890625 8.1875 C 4.453125 10.132812 5.03125 11.59375 5.625 12.5625 C 6.226562 13.539062 6.707031 13.976562 7.0625 13.875 Z M 7.0625 13.875 "/></g></g><g transform="translate(166.578692, 275.080631)"><g><path d="M 13.03125 -7.015625 C 13.226562 -7.117188 13.425781 -7.195312 13.625 -7.25 C 13.820312 -7.3125 13.945312 -7.3125 14 -7.25 C 14.050781 -7.1875 13.96875 -7.019531 13.75 -6.75 C 13.0625 -5.976562 12.25 -5.273438 11.3125 -4.640625 C 10.382812 -4.003906 9.4375 -3.460938 8.46875 -3.015625 C 7.695312 -2.671875 6.878906 -2.394531 6.015625 -2.1875 C 5.160156 -1.988281 4.3125 -1.945312 3.46875 -2.0625 C 2.632812 -2.175781 1.875 -2.546875 1.1875 -3.171875 C 0.363281 -3.992188 -0.0820312 -5.035156 -0.15625 -6.296875 C -0.226562 -7.566406 0.0664062 -8.632812 0.734375 -9.5 C 1.609375 -10.476562 2.71875 -11.109375 4.0625 -11.390625 C 5.40625 -11.679688 6.613281 -11.46875 7.6875 -10.75 C 8.207031 -10.382812 8.414062 -9.960938 8.3125 -9.484375 C 8.21875 -9.003906 7.960938 -8.550781 7.546875 -8.125 C 7.128906 -7.707031 6.660156 -7.390625 6.140625 -7.171875 C 5.367188 -6.867188 4.675781 -6.804688 4.0625 -6.984375 C 3.457031 -7.171875 2.984375 -7.414062 2.640625 -7.71875 C 2.390625 -7.632812 2.238281 -7.289062 2.1875 -6.6875 C 2.03125 -5.570312 2.378906 -4.660156 3.234375 -3.953125 C 3.953125 -3.421875 4.851562 -3.273438 5.9375 -3.515625 C 7.019531 -3.753906 8.128906 -4.179688 9.265625 -4.796875 C 10.398438 -5.421875 11.414062 -6.007812 12.3125 -6.5625 C 12.582031 -6.707031 12.820312 -6.859375 13.03125 -7.015625 Z M 5.921875 -9.84375 C 5.796875 -10.019531 5.582031 -10.085938 5.28125 -10.046875 C 4.988281 -10.015625 4.6875 -9.925781 4.375 -9.78125 C 4.070312 -9.632812 3.804688 -9.476562 3.578125 -9.3125 C 3.347656 -9.15625 3.25 -9.046875 3.28125 -8.984375 C 3.28125 -8.941406 3.304688 -8.867188 3.359375 -8.765625 C 3.410156 -8.671875 3.488281 -8.570312 3.59375 -8.46875 C 3.707031 -8.363281 3.851562 -8.285156 4.03125 -8.234375 C 4.21875 -8.191406 4.453125 -8.207031 4.734375 -8.28125 C 5.179688 -8.40625 5.492188 -8.566406 5.671875 -8.765625 C 5.859375 -8.972656 5.960938 -9.175781 5.984375 -9.375 C 6.003906 -9.582031 5.984375 -9.738281 5.921875 -9.84375 Z M 5.921875 -9.84375 "/></g></g></g><g fill="#ffffff" fill-opacity="1"><g transform="translate(178.977129, 275.080631)"><g/></g><g transform="translate(186.418535, 275.080631)"><g/></g></g><g fill="#ffffff" fill-opacity="1"><g transform="translate(193.85994, 275.080631)"><g><path d="M 41.5 -8.875 C 41.601562 -8.832031 41.691406 -8.78125 41.765625 -8.71875 C 41.847656 -8.65625 41.875 -8.570312 41.84375 -8.46875 C 41.8125 -8.363281 41.75 -8.253906 41.65625 -8.140625 C 41.632812 -8.117188 41.613281 -8.085938 41.59375 -8.046875 C 41.582031 -8.023438 41.554688 -8.007812 41.515625 -8 C 41.484375 -7.988281 41.457031 -7.984375 41.4375 -7.984375 C 40.757812 -8.003906 40.328125 -7.820312 40.140625 -7.4375 C 39.953125 -7.050781 39.84375 -6.554688 39.8125 -5.953125 C 39.625 -1.742188 39.410156 2.457031 39.171875 6.65625 C 39.109375 7.582031 39.054688 8.515625 39.015625 9.453125 C 38.984375 9.953125 38.910156 10.4375 38.796875 10.90625 C 38.691406 11.289062 38.425781 11.492188 38 11.515625 C 37.90625 11.515625 37.816406 11.5 37.734375 11.46875 C 37.648438 11.4375 37.578125 11.363281 37.515625 11.25 C 37.160156 10.53125 37.140625 7.171875 37.453125 1.171875 C 37.722656 -4.109375 37.554688 -6.941406 36.953125 -7.328125 C 36.546875 -7.585938 35.550781 -7.664062 33.96875 -7.5625 L 7.34375 -5.671875 C 7.195312 -5.660156 7.035156 -5.65625 6.859375 -5.65625 C 6.835938 -5.65625 6.816406 -5.65625 6.796875 -5.65625 C 6.242188 -5.6875 5.40625 -3.5 4.28125 0.90625 C 3.164062 5.3125 2.425781 8.515625 2.0625 10.515625 C 1.707031 12.515625 1.15625 13.644531 0.40625 13.90625 C 0.300781 13.9375 0.191406 13.960938 0.078125 13.984375 C -0.0234375 14.015625 -0.140625 14.003906 -0.265625 13.953125 C -0.410156 13.898438 -0.507812 13.8125 -0.5625 13.6875 C -0.613281 13.570312 -0.640625 13.460938 -0.640625 13.359375 C -0.640625 13.285156 -0.640625 13.21875 -0.640625 13.15625 C -0.617188 12.46875 -0.550781 11.796875 -0.4375 11.140625 C 0.445312 6.316406 1.671875 1.617188 3.234375 -2.953125 C 3.285156 -3.097656 3.34375 -3.257812 3.40625 -3.4375 C 3.539062 -3.84375 3.660156 -4.25 3.765625 -4.65625 C 3.890625 -5.132812 3.695312 -5.363281 3.1875 -5.34375 C 2.195312 -5.300781 1.21875 -5.238281 0.25 -5.15625 C 0.1875 -5.144531 0.125 -5.132812 0.0625 -5.125 C -0.675781 -5.070312 -1.421875 -5.019531 -2.171875 -4.96875 C -3.566406 -4.851562 -4.960938 -4.75 -6.359375 -4.65625 C -6.378906 -4.65625 -6.398438 -4.65625 -6.421875 -4.65625 C -7.253906 -4.550781 -8.101562 -4.585938 -8.96875 -4.765625 C -9.050781 -4.785156 -9.132812 -4.820312 -9.21875 -4.875 C -9.300781 -4.925781 -9.335938 -5.003906 -9.328125 -5.109375 C -9.316406 -5.304688 -9.25 -5.457031 -9.125 -5.5625 C -9 -5.675781 -8.859375 -5.742188 -8.703125 -5.765625 C -8.554688 -5.796875 -8.40625 -5.8125 -8.25 -5.8125 C -8.1875 -5.8125 -8.132812 -5.8125 -8.09375 -5.8125 C -6.800781 -5.925781 -5.5 -6.03125 -4.1875 -6.125 C -1.769531 -6.3125 0.664062 -6.472656 3.125 -6.609375 C 4.101562 -6.660156 4.757812 -7.144531 5.09375 -8.0625 C 7.84375 -15.582031 11.070312 -22.863281 14.78125 -29.90625 C 15.988281 -32.21875 17.289062 -34.476562 18.6875 -36.6875 C 20.082031 -38.90625 21.582031 -41.023438 23.1875 -43.046875 C 24.59375 -44.828125 26.144531 -46.457031 27.84375 -47.9375 C 28.78125 -48.75 29.84375 -49.398438 31.03125 -49.890625 C 31.632812 -50.140625 32.273438 -50.269531 32.953125 -50.28125 C 34.203125 -50.3125 35.273438 -49.816406 36.171875 -48.796875 C 36.910156 -47.921875 37.472656 -46.96875 37.859375 -45.9375 C 38.597656 -43.988281 39.109375 -42 39.390625 -39.96875 C 39.828125 -36.851562 40.09375 -33.726562 40.1875 -30.59375 C 40.269531 -27.351562 40.289062 -24.113281 40.25 -20.875 C 40.21875 -17.632812 40.175781 -14.398438 40.125 -11.171875 C 40.125 -11.109375 40.117188 -11.039062 40.109375 -10.96875 C 40.097656 -10.820312 40.085938 -10.675781 40.078125 -10.53125 C 40.035156 -10.050781 40.0625 -9.597656 40.15625 -9.171875 C 40.300781 -9.066406 40.441406 -9.003906 40.578125 -8.984375 C 40.722656 -8.960938 40.859375 -8.957031 40.984375 -8.96875 C 41.160156 -8.976562 41.332031 -8.945312 41.5 -8.875 Z M 37.703125 -14.078125 C 37.722656 -14.648438 37.734375 -15.226562 37.734375 -15.8125 C 37.734375 -18.757812 37.710938 -21.707031 37.671875 -24.65625 C 37.640625 -27.613281 37.546875 -30.570312 37.390625 -33.53125 C 37.234375 -36.394531 36.882812 -39.253906 36.34375 -42.109375 C 36.09375 -43.460938 35.6875 -44.789062 35.125 -46.09375 C 34.820312 -46.8125 34.40625 -47.453125 33.875 -48.015625 C 33.15625 -48.804688 32.335938 -49.035156 31.421875 -48.703125 C 30.671875 -48.429688 30 -48.03125 29.40625 -47.5 C 28.300781 -46.53125 27.265625 -45.460938 26.296875 -44.296875 C 24.828125 -42.554688 23.46875 -40.726562 22.21875 -38.8125 C 20.976562 -36.90625 19.8125 -34.929688 18.71875 -32.890625 C 16.65625 -29.046875 14.738281 -25.109375 12.96875 -21.078125 C 11.195312 -17.054688 9.550781 -12.960938 8.03125 -8.796875 C 8 -8.722656 7.96875 -8.65625 7.9375 -8.59375 C 7.863281 -8.414062 7.8125 -8.1875 7.78125 -7.90625 C 7.75 -7.632812 7.925781 -7.507812 8.3125 -7.53125 C 25.664062 -8.519531 35.117188 -9.046875 36.671875 -9.109375 C 37.097656 -9.128906 37.375 -9.203125 37.5 -9.328125 C 37.632812 -9.453125 37.707031 -9.742188 37.71875 -10.203125 C 37.726562 -11.253906 37.722656 -12.304688 37.703125 -13.359375 C 37.703125 -13.597656 37.703125 -13.835938 37.703125 -14.078125 Z M 37.703125 -14.078125 "/></g></g><g transform="translate(236.823805, 275.080631)"><g><path d="M 9.34375 -7.015625 C 9.53125 -7.398438 9.65625 -7.578125 9.71875 -7.546875 C 9.789062 -7.515625 9.8125 -7.359375 9.78125 -7.078125 C 9.75 -6.804688 9.6875 -6.492188 9.59375 -6.140625 C 9.46875 -5.597656 9.25 -4.972656 8.9375 -4.265625 C 8.625 -3.554688 8.273438 -2.914062 7.890625 -2.34375 C 7.328125 -1.539062 6.628906 -0.9375 5.796875 -0.53125 C 4.960938 -0.125 4.203125 -0.0234375 3.515625 -0.234375 C 2.835938 -0.441406 2.445312 -1.082031 2.34375 -2.15625 C 2.320312 -3.050781 2.398438 -4.035156 2.578125 -5.109375 C 2.640625 -5.554688 2.703125 -6 2.765625 -6.4375 C 2.765625 -6.59375 2.722656 -6.710938 2.640625 -6.796875 C 2.566406 -6.878906 2.46875 -6.910156 2.34375 -6.890625 C 2.257812 -6.890625 2.160156 -6.890625 2.046875 -6.890625 C 1.515625 -6.796875 0.96875 -6.804688 0.40625 -6.921875 C -0.257812 -7.109375 -0.644531 -7.429688 -0.75 -7.890625 C -0.851562 -8.359375 -0.84375 -8.972656 -0.71875 -9.734375 C -0.644531 -10.265625 -0.441406 -10.664062 -0.109375 -10.9375 C 0.210938 -11.207031 0.601562 -11.316406 1.0625 -11.265625 C 1.6875 -11.203125 1.988281 -10.960938 1.96875 -10.546875 C 1.945312 -10.128906 1.828125 -9.679688 1.609375 -9.203125 C 1.410156 -8.796875 1.304688 -8.457031 1.296875 -8.1875 C 1.296875 -7.925781 1.53125 -7.832031 2 -7.90625 C 2.101562 -7.9375 2.21875 -7.972656 2.34375 -8.015625 C 2.519531 -8.078125 2.71875 -8.132812 2.9375 -8.1875 C 3.164062 -8.25 3.460938 -8.265625 3.828125 -8.234375 C 4.253906 -8.210938 4.535156 -8.015625 4.671875 -7.640625 C 4.816406 -7.265625 4.878906 -6.789062 4.859375 -6.21875 C 4.835938 -5.65625 4.785156 -5.082031 4.703125 -4.5 C 4.597656 -3.769531 4.546875 -3.140625 4.546875 -2.609375 C 4.546875 -2.085938 4.695312 -1.785156 5 -1.703125 C 5.394531 -1.585938 5.988281 -1.945312 6.78125 -2.78125 C 7.582031 -3.625 8.4375 -5.035156 9.34375 -7.015625 Z M 9.34375 -7.015625 "/></g></g><g transform="translate(245.788648, 275.080631)"><g><path d="M 8.375 -9.6875 C 8.820312 -9.726562 9.132812 -9.644531 9.3125 -9.4375 C 9.457031 -9.195312 9.519531 -8.378906 9.5 -6.984375 C 9.488281 -5.585938 9.421875 -3.960938 9.296875 -2.109375 C 9.179688 -0.265625 9.046875 1.441406 8.890625 3.015625 C 8.742188 4.597656 8.628906 5.703125 8.546875 6.328125 C 7.921875 9.910156 6.800781 12.90625 5.1875 15.3125 C 3.570312 17.71875 1.734375 19.578125 -0.328125 20.890625 C -2.398438 22.203125 -4.441406 23 -6.453125 23.28125 C -8.472656 23.5625 -10.1875 23.363281 -11.59375 22.6875 C -13 22.019531 -13.832031 20.90625 -14.09375 19.34375 C -14.363281 17.789062 -13.800781 15.832031 -12.40625 13.46875 C -11.007812 11.113281 -8.519531 8.390625 -4.9375 5.296875 C -3.507812 4.117188 -1.535156 2.6875 0.984375 1 C 3.515625 -0.675781 5.515625 -1.8125 6.984375 -2.40625 C 7.015625 -2.6875 7.039062 -2.988281 7.0625 -3.3125 C 6.457031 -2.613281 5.835938 -2.210938 5.203125 -2.109375 C 4.566406 -2.003906 3.976562 -1.992188 3.4375 -2.078125 C 3.40625 -2.078125 3.378906 -2.078125 3.359375 -2.078125 C 2.390625 -2.203125 1.628906 -2.648438 1.078125 -3.421875 C 0.535156 -4.191406 0.1875 -5.0625 0.03125 -6.03125 C -0.113281 -7.007812 -0.0703125 -7.882812 0.15625 -8.65625 C 0.394531 -9.425781 0.835938 -9.890625 1.484375 -10.046875 C 1.742188 -10.085938 2.035156 -10.113281 2.359375 -10.125 C 2.679688 -10.132812 2.945312 -10.097656 3.15625 -10.015625 C 3.375 -9.929688 3.457031 -9.757812 3.40625 -9.5 C 3.195312 -8.71875 3.078125 -7.859375 3.046875 -6.921875 C 3.015625 -5.992188 3.09375 -5.179688 3.28125 -4.484375 C 3.476562 -3.785156 3.820312 -3.410156 4.3125 -3.359375 C 4.800781 -3.304688 5.46875 -3.765625 6.3125 -4.734375 C 6.707031 -5.222656 6.976562 -5.742188 7.125 -6.296875 C 7.125 -6.898438 7.113281 -7.472656 7.09375 -8.015625 C 7.070312 -8.515625 7.0625 -8.929688 7.0625 -9.265625 C 7.164062 -9.429688 7.335938 -9.539062 7.578125 -9.59375 C 7.828125 -9.65625 8.050781 -9.6875 8.25 -9.6875 C 8.300781 -9.6875 8.34375 -9.6875 8.375 -9.6875 Z M 6.921875 0.171875 C 6.921875 0.148438 6.921875 0.128906 6.921875 0.109375 C 6.941406 -0.0234375 6.957031 -0.191406 6.96875 -0.390625 C 6.976562 -0.597656 6.960938 -0.757812 6.921875 -0.875 C 6.890625 -1 6.804688 -1.015625 6.671875 -0.921875 C 6.523438 -0.816406 6.351562 -0.703125 6.15625 -0.578125 C 4.914062 0.265625 3.285156 1.4375 1.265625 2.9375 C -0.742188 4.445312 -2.757812 6.148438 -4.78125 8.046875 C -5.175781 8.421875 -5.742188 8.988281 -6.484375 9.75 C -7.234375 10.519531 -8.015625 11.394531 -8.828125 12.375 C -9.640625 13.351562 -10.351562 14.363281 -10.96875 15.40625 C -11.582031 16.445312 -11.960938 17.425781 -12.109375 18.34375 C -12.265625 19.269531 -12.0625 20.066406 -11.5 20.734375 C -10.75 21.523438 -9.660156 21.867188 -8.234375 21.765625 C -6.804688 21.660156 -5.242188 21.125 -3.546875 20.15625 C -1.847656 19.1875 -0.21875 17.789062 1.34375 15.96875 C 2.914062 14.15625 4.21875 11.925781 5.25 9.28125 C 6.28125 6.644531 6.835938 3.609375 6.921875 0.171875 Z M 6.921875 0.171875 "/></g></g><g transform="translate(257.609937, 275.080631)"><g><path d="M 21.65625 -8.46875 C 21.832031 -8.695312 22.015625 -8.863281 22.203125 -8.96875 C 22.398438 -9.082031 22.519531 -9.082031 22.5625 -8.96875 C 22.601562 -8.863281 22.492188 -8.609375 22.234375 -8.203125 C 21.660156 -7.347656 20.8125 -6.53125 19.6875 -5.75 C 18.570312 -4.976562 17.335938 -4.316406 15.984375 -3.765625 C 14.628906 -3.222656 13.304688 -2.863281 12.015625 -2.6875 C 10.734375 -2.519531 9.644531 -2.609375 8.75 -2.953125 C 7.851562 -3.296875 7.300781 -3.972656 7.09375 -4.984375 C 6.34375 -3.765625 5.453125 -2.804688 4.421875 -2.109375 C 3.390625 -1.421875 2.410156 -1.132812 1.484375 -1.25 C 0.421875 -1.394531 -0.28125 -1.789062 -0.625 -2.4375 C -0.976562 -3.082031 -1.097656 -3.820312 -0.984375 -4.65625 C -0.867188 -5.5 -0.613281 -6.296875 -0.21875 -7.046875 C 0.0703125 -7.617188 0.484375 -8.15625 1.015625 -8.65625 C 1.554688 -9.15625 2.117188 -9.539062 2.703125 -9.8125 C 3.441406 -10.1875 4.175781 -10.351562 4.90625 -10.3125 C 5.644531 -10.28125 6.4375 -10.039062 7.28125 -9.59375 C 7.28125 -9.59375 7.289062 -9.613281 7.3125 -9.65625 C 7.3125 -9.738281 7.328125 -9.835938 7.359375 -9.953125 C 7.390625 -10.078125 7.460938 -10.179688 7.578125 -10.265625 C 7.722656 -10.378906 7.910156 -10.46875 8.140625 -10.53125 C 8.367188 -10.59375 8.585938 -10.601562 8.796875 -10.5625 C 9.140625 -10.488281 9.351562 -10.3125 9.4375 -10.03125 C 9.519531 -9.757812 9.535156 -9.457031 9.484375 -9.125 C 9.429688 -8.789062 9.375 -8.507812 9.3125 -8.28125 C 9.289062 -8.226562 9.28125 -8.179688 9.28125 -8.140625 C 8.9375 -6.722656 9.066406 -5.726562 9.671875 -5.15625 C 10.273438 -4.59375 11.148438 -4.332031 12.296875 -4.375 C 13.441406 -4.414062 14.660156 -4.65625 15.953125 -5.09375 C 17.242188 -5.53125 18.414062 -6.054688 19.46875 -6.671875 C 20.519531 -7.285156 21.25 -7.882812 21.65625 -8.46875 Z M 1.90625 -3.15625 C 2.351562 -2.851562 2.832031 -2.882812 3.34375 -3.25 C 3.863281 -3.613281 4.367188 -4.140625 4.859375 -4.828125 C 5.359375 -5.515625 5.769531 -6.195312 6.09375 -6.875 C 6.414062 -7.5625 6.597656 -8.082031 6.640625 -8.4375 C 5.609375 -8.988281 4.726562 -9.085938 4 -8.734375 C 3.269531 -8.378906 2.695312 -7.8125 2.28125 -7.03125 C 1.875 -6.25 1.640625 -5.472656 1.578125 -4.703125 C 1.515625 -3.941406 1.625 -3.425781 1.90625 -3.15625 Z M 1.90625 -3.15625 "/></g></g></g><g clip-path="url(#af15010dd6)"><g clip-path="url(#65343e8620)"><path fill="#ffffff" d="M 151.550781 130.367188 L 157.511719 130.367188 L 157.511719 135.585938 L 151.550781 135.585938 Z M 151.550781 130.367188 " fill-opacity="1" fill-rule="nonzero"/></g></g></svg>